<?xml version="1.0" encoding="UTF-8"?>
<svg width="20px" height="21px" viewBox="0 0 20 21" version="1.1" xmlns="http://www.w3.org/2000/svg" xmlns:xlink="http://www.w3.org/1999/xlink">
    <!-- Generator: sketchtool 53 (72520) - https://sketchapp.com -->
    <title>107D4507-0D3F-400B-B107-D853441E944C</title>
    <desc>Created with sketchtool.</desc>
    <defs>
        <rect id="path-1" x="0" y="0" width="1440" height="87"></rect>
        <filter x="-0.5%" y="-5.7%" width="101.0%" height="116.1%" filterUnits="objectBoundingBox" id="filter-2">
            <feOffset dx="0" dy="2" in="SourceAlpha" result="shadowOffsetOuter1"></feOffset>
            <feGaussianBlur stdDeviation="2" in="shadowOffsetOuter1" result="shadowBlurOuter1"></feGaussianBlur>
            <feColorMatrix values="0 0 0 0 0   0 0 0 0 0   0 0 0 0 0  0 0 0 0.079955201 0" type="matrix" in="shadowBlurOuter1"></feColorMatrix>
        </filter>
    </defs>
    <g id="Page-1" stroke="none" stroke-width="1" fill="none" fill-rule="evenodd">
        <g id="Desktop-HD-1440" transform="translate(-1290.000000, -36.000000)">
            <rect fill="#FFFFFF" x="0" y="0" width="1440" height="3355"></rect>
            <g id="header">
                <g>
                    <g>
                        <use fill="black" fill-opacity="1" filter="url(#filter-2)" xlink:href="#path-1"></use>
                        <use fill="#FFFFFF" fill-rule="evenodd" xlink:href="#path-1"></use>
                    </g>
                    <g id="ic_yt" transform="translate(1290.000000, 36.465909)" fill="#9D9D9D" fill-rule="nonzero">
                        <g id="Shape">
                            <path d="M16.3458333,3.15343552 C13.3425,2.94843838 6.65333333,2.9492717 3.65416667,3.15343552 C0.406666667,3.37509911 0.0241666667,5.33673849 0,10.5 C0.0241666667,15.654095 0.403333333,17.6240676 3.65416667,17.8465645 C6.65416667,18.0507283 13.3425,18.0515616 16.3458333,17.8465645 C19.5933333,17.6249009 19.9758333,15.6632615 20,10.5 C19.9758333,5.34590503 19.5966667,3.37593243 16.3458333,3.15343552 Z M7,14 L7,7 L14,10.493875 L7,14 L7,14 Z"></path>
                        </g>
                    </g>
                </g>
            </g>
        </g>
    </g>
</svg>